<svg width="20" height="21" viewBox="0 0 20 21" fill="none" xmlns="http://www.w3.org/2000/svg">
<g clip-path="url(#clip0_1_483)">
<path d="M2.97014 4.22743C2.71014 4.02243 2.33264 4.06993 2.12764 4.32993C1.92264 4.58993 1.97014 4.96743 2.23014 5.17243L17.0301 16.7724C17.2901 16.9774 17.6676 16.9299 17.8726 16.6699C18.0776 16.4099 18.0301 16.0324 17.7701 15.8274L16.3601 14.7224C17.3476 14.0824 18.0001 12.9699 18.0001 11.7049C18.0001 9.81243 16.5326 8.24243 14.6426 8.11743L14.4401 8.10493C14.1101 8.08243 13.8226 8.33243 13.8026 8.66493C13.7826 8.99743 14.0301 9.28243 14.3601 9.30243L14.5626 9.31493C15.8226 9.39993 16.8001 10.4449 16.8001 11.7049C16.8001 12.6999 16.1926 13.5549 15.3301 13.9149L12.3701 11.5949C12.8901 10.9699 13.2001 10.1674 13.2001 9.29743C13.2001 7.30993 11.5901 5.69993 9.60264 5.69993H5.59764C5.37014 5.69993 5.14514 5.72243 4.92764 5.76243L2.97014 4.22743ZM6.38014 6.89993H9.60514C10.9276 6.89993 12.0026 7.97243 12.0026 9.29743C12.0026 9.88993 11.7876 10.4349 11.4276 10.8549L6.38014 6.89993ZM13.1701 15.2999L11.6476 14.0999H10.4001C9.07514 14.0999 8.00264 13.0274 8.00264 11.7024C8.00264 11.5524 8.01764 11.4024 8.04264 11.2599L7.02264 10.4574C6.88014 10.8474 6.80014 11.2674 6.80014 11.7024C6.80014 13.6899 8.41014 15.2999 10.3976 15.2999H13.1701ZM2.75264 7.09243C2.28014 7.70243 2.00014 8.46743 2.00014 9.29743C2.00014 11.1899 3.46764 12.7599 5.35764 12.8849L5.56014 12.8974C5.89014 12.9199 6.17764 12.6699 6.19764 12.3399C6.21764 12.0099 5.97014 11.7224 5.63764 11.7024L5.43514 11.6899C4.17764 11.6049 3.20014 10.5574 3.20014 9.29743C3.20014 8.74743 3.38514 8.24243 3.69514 7.83743L2.75264 7.09243Z" fill="#FF4B55"/>
</g>
<defs>
<clipPath id="clip0_1_483">
<rect width="16" height="12.8" fill="white" transform="translate(2 4.10001)"/>
</clipPath>
</defs>
</svg>
