<svg width="20" height="20" viewBox="0 0 20 20" fill="none" xmlns="http://www.w3.org/2000/svg">
<rect width="20" height="20" rx="5.47138" fill="#F4F4F4"/>
<path d="M8.99096 9.99774L6.79924 7.80678C6.52289 7.53053 6.52289 7.07328 6.79924 6.79703C7.07558 6.52078 7.53299 6.52078 7.80934 6.79703L10.0011 8.988L12.1928 6.79703C12.4691 6.52078 12.9265 6.52078 13.2029 6.79703C13.4792 7.07328 13.4792 7.53053 13.2029 7.80678L11.0112 9.99774L13.2029 12.1887C13.4792 12.465 13.4792 12.9222 13.2029 13.1985C13.06 13.3413 12.8789 13.408 12.6978 13.408C12.5168 13.408 12.3357 13.3413 12.1928 13.1985L10.0011 11.0075L7.80934 13.1985C7.6664 13.3413 7.48534 13.408 7.30429 13.408C7.12323 13.408 6.94217 13.3413 6.79924 13.1985C6.52289 12.9222 6.52289 12.465 6.79924 12.1887L8.99096 9.99774Z" fill="#1C1C28"/>
</svg>
