<svg width="16" height="17" viewBox="0 0 16 17" fill="none" xmlns="http://www.w3.org/2000/svg">
<path d="M1.13728 11.7781L0.418533 14.2187L0.0310334 15.5375C-0.0470916 15.8031 0.0247834 16.0875 0.218533 16.2812C0.412283 16.475 0.696658 16.5469 0.959158 16.4719L2.28103 16.0812L4.72166 15.3625C5.10916 15.25 5.46228 15.0531 5.76541 14.7875C5.80916 14.75 5.84978 14.7094 5.89041 14.6687L15.3967 5.16562C16.081 4.48124 16.1654 3.42812 15.6529 2.64999C15.581 2.54062 15.4935 2.43437 15.3967 2.33749L14.1654 1.10312C13.3842 0.321869 12.1185 0.321869 11.3373 1.10312L1.83103 10.6094C1.50603 10.9344 1.26853 11.3375 1.13728 11.7781ZM2.57478 12.2C2.62791 12.025 2.71541 11.8625 2.83728 11.725C2.85603 11.7062 2.87166 11.6875 2.89041 11.6687L10.031 4.53124L11.9685 6.46874L4.83103 13.6094C4.68416 13.7562 4.49978 13.8656 4.29978 13.925L3.56853 14.1406L1.85603 14.6437L2.35916 12.9312L2.57478 12.2Z" fill="#6B7280"/>
</svg>
