<svg width="22" height="22" viewBox="0 0 22 22" fill="none" xmlns="http://www.w3.org/2000/svg">
<rect width="22" height="22" rx="4" fill="#3E97FF" fill-opacity="0.1"/>
<g clip-path="url(#clip0_1_20)">
<path d="M10.1598 4.88862C10.5152 4.95971 10.7449 5.30425 10.6738 5.65971L10.2637 7.7187H13.2988L13.7609 5.40268C13.832 5.04721 14.1766 4.81753 14.532 4.88862C14.8875 4.95971 15.1172 5.30425 15.0461 5.65971L14.6387 7.7187H16.5938C16.9574 7.7187 17.25 8.01128 17.25 8.37495C17.25 8.73862 16.9574 9.0312 16.5938 9.0312H14.3762L13.5887 12.9687H15.7188C16.0824 12.9687 16.375 13.2613 16.375 13.6249C16.375 13.9886 16.0824 14.2812 15.7188 14.2812H13.3262L12.8641 16.5972C12.793 16.9527 12.4484 17.1824 12.093 17.1113C11.7375 17.0402 11.5078 16.6957 11.5789 16.3402L11.9863 14.2812H8.95117L8.48906 16.5972C8.41797 16.9527 8.07344 17.1824 7.71797 17.1113C7.3625 17.0402 7.13281 16.6957 7.20391 16.3402L7.61133 14.2812H5.65625C5.29258 14.2812 5 13.9886 5 13.6249C5 13.2613 5.29258 12.9687 5.65625 12.9687H7.87383L8.66133 9.0312H6.53125C6.16758 9.0312 5.875 8.73862 5.875 8.37495C5.875 8.01128 6.16758 7.7187 6.53125 7.7187H8.92383L9.38594 5.40268C9.45703 5.04721 9.80156 4.81753 10.157 4.88862H10.1598ZM10.0012 9.0312L9.21367 12.9687H12.2488L13.0363 9.0312H10.0012Z" fill="#3E97FF"/>
</g>
<defs>
<clipPath id="clip0_1_20">
<rect width="12.25" height="14" fill="white" transform="translate(5 4)"/>
</clipPath>
</defs>
</svg>
