<svg width="30" height="30" viewBox="0 0 30 30" fill="none" xmlns="http://www.w3.org/2000/svg">
<g clip-path="url(#clip0_105_22)">
<path d="M15 29.0625C22.7665 29.0625 29.0625 22.7665 29.0625 15C29.0625 7.2335 22.7665 0.9375 15 0.9375C7.2335 0.9375 0.9375 7.2335 0.9375 15C0.9375 22.7665 7.2335 29.0625 15 29.0625Z" fill="#006C35"/>
<path d="M14.8594 12.5156C14.8125 12.0938 15.0469 11.6719 15.4687 11.7656C15.7969 11.8125 16.1719 12.1406 15.9844 12.4688C15.7031 12.9844 14.9531 12.9844 14.4844 13.2656C14.5312 13.5469 15.8906 13.2188 16.125 13.2188C16.3594 13.2188 16.5937 13.3125 16.4531 13.5938C16.3125 13.875 15.8438 13.875 15.5625 13.9219C15.2812 13.9688 14.8125 13.9687 14.6719 14.2031C14.3906 14.5781 14.9531 14.625 15.1406 14.7187C15.6094 14.9531 14.8594 15.1875 14.6719 15.1406C13.9687 15 13.8281 14.625 13.4062 14.1563C12.9844 14.7188 11.6719 15.9844 11.3906 14.6719C10.9219 14.8594 10.4531 15.0937 9.9375 15.1406C10.1719 14.8125 10.6406 14.6719 11.0156 14.4844C11.4844 14.25 11.4844 13.8281 11.7656 13.4531C11.8594 13.5938 11.7656 13.7812 11.8125 13.9687C12.1875 13.7812 12.6562 13.4063 12.4687 12.9375C12.4687 12.8906 11.9062 11.7656 12.375 11.9531C12.7969 12.1406 12.6562 12.5625 12.75 12.8906C12.8906 13.5 12.6094 13.8281 12.1406 14.2031C11.9531 14.3437 11.4375 14.9062 12.0469 14.9062C12.4687 14.9062 12.8437 14.4375 13.0781 14.1563C13.3594 13.7813 13.2656 13.4063 13.0781 12.9844C12.9375 12.6563 12.6094 11.9531 13.0312 11.7188C13.3594 12.2344 13.5 12.8438 13.6406 13.4531C13.7344 13.9688 13.8281 14.4844 14.3906 14.625C14.3437 14.25 14.5781 13.9688 14.9062 13.8281C14.6719 13.6406 13.3594 13.875 13.875 13.1719C13.9219 12.8438 14.8594 12.7031 14.8594 12.5156Z" fill="white"/>
<path d="M7.68751 14.25C7.92189 14.9062 8.71876 14.6719 9.18751 14.4844C9.93751 14.1094 9.93751 13.5469 9.93751 12.7969C9.65626 12.9375 9.70314 13.4531 9.60939 13.6875C9.42189 14.0625 8.81251 14.3906 8.39064 14.3437C7.78126 14.25 7.50001 13.2187 7.96876 12.8437C8.06251 13.1719 7.82814 13.875 8.39064 13.9219C8.81251 13.9687 9.65626 13.4531 9.51564 12.9844C8.95314 13.1719 8.62501 12.9844 8.81251 12.375C8.95314 11.8125 9.51564 12.2344 9.75001 12.5156C10.6406 12 9.04689 10.0312 9.98439 9.5156C10.1719 9.84373 10.4531 10.2656 10.2188 10.5937C9.93751 10.9687 10.2188 11.7656 10.2656 12.1875C10.7344 11.7656 10.3594 12.5156 10.7344 12.5625C10.9688 12.6094 11.0625 12 11.2031 12C11.25 12.1406 11.25 12.5625 11.4844 12.5156C11.7656 12.4219 11.4375 12.0469 11.7188 11.9531C11.8125 12.1875 11.7656 12.8906 11.4375 12.8437C11.1563 12.7969 11.2031 12.6094 10.875 12.7969C10.5938 12.9375 10.5 12.7969 10.3125 12.6562C10.2656 13.2187 10.4531 13.8281 10.125 14.3437C9.84376 14.7656 9.28126 15 8.81251 15.0937C7.59376 15.3281 7.26564 14.1094 7.68751 13.125C7.78126 13.4062 7.59376 13.9219 7.68751 14.25ZM19.125 14.4844C19.3594 15.0937 19.8281 13.8281 19.9688 13.6406C20.3438 13.0781 20.9063 14.5312 21.1406 13.5937C21.2813 12.9844 21.0938 12.375 21.0469 11.7656C21 11.3437 20.8594 10.9687 20.5781 10.6406C20.2969 10.2656 20.0156 9.93748 20.1563 9.46873C20.625 9.65623 20.625 10.0312 20.8594 10.4062C20.9063 10.125 20.7188 9.74998 20.9063 9.5156C21.1406 9.18748 21.3281 10.0781 21.3281 10.1719C21.375 10.4062 21.1406 10.5 21.2813 10.875C21.375 11.1562 21.5625 11.4375 21.75 11.6719C21.7031 11.3906 21.2813 9.46873 21.75 9.46873C21.8906 9.46873 22.0313 10.0312 22.0313 10.125C22.125 10.4062 21.9375 10.6406 21.9375 10.9687C21.8906 11.5312 21.9844 12.1875 22.3594 12.6094C22.5469 12.8437 23.25 13.6875 22.875 13.9687C22.5938 13.6406 22.4063 13.2656 22.1719 12.9375C22.1719 13.3125 22.2656 13.7344 22.0781 14.0156C21.8906 13.9219 21.9844 13.3125 21.9844 13.1719C21.9844 12.6562 21.6563 12.2344 21.375 11.8125C21.2813 12.5156 21.8438 13.8281 21.1875 14.3437C20.7656 14.7187 20.2031 13.875 20.0625 14.2031C19.9219 14.4375 19.5938 15.2812 19.2188 15.1875C18.75 15.0937 18.4219 13.7812 18.9375 13.6406C18.9844 13.875 18.9844 14.2031 19.125 14.4844Z" fill="white"/>
<path d="M9.09376 11.2969C9.42188 11.3437 9.09376 10.2187 9.09376 10.0312C9.14063 9.84373 9.28126 9.74998 9.37501 9.93748C9.51563 10.2187 9.51563 10.5469 9.56251 10.8281C9.56251 11.0625 9.60938 11.3437 9.42188 11.5312C9.14063 11.8125 8.76563 11.6719 8.62501 11.2969C7.96876 11.8594 8.81251 12.8437 8.25001 13.4062C8.15626 12.8906 8.25001 12.3281 8.06251 11.8594C7.96876 11.625 7.54688 11.7187 7.50001 11.2969C7.50001 11.1094 7.64063 10.5937 7.45313 10.4531C7.35938 10.6406 7.26563 12.0937 6.79688 11.6719C6.42188 11.3906 6.51563 10.4531 6.65626 10.0781C6.93751 10.2187 6.60938 11.25 6.98438 11.2969C7.17188 11.3437 7.21876 10.5469 7.26563 10.4062C7.40626 10.1719 7.87501 9.51561 7.78126 10.1719C7.73438 10.4531 7.50001 11.3437 8.06251 11.2969C8.01563 10.8281 7.96876 10.3594 7.87501 9.89061C7.82813 9.65623 7.96876 9.18748 8.15626 9.60936C8.29688 9.89061 8.20313 10.0312 8.15626 10.3125C8.10938 10.6406 8.25001 10.9687 8.29688 11.25C8.57813 11.0156 8.20313 10.125 8.43751 9.74998C9.00001 10.0781 8.39063 11.2031 9.09376 11.2969ZM15.1406 11.3906C14.9063 11.7187 14.4844 11.4375 14.2969 11.2031C14.0625 11.4844 13.5938 11.9531 13.2188 11.5781C12.9375 11.2969 13.2656 10.7812 13.0313 10.5469C12.8906 10.7812 12.6563 11.9062 12.2344 11.3906C12 11.1094 11.6719 10.125 12.1875 9.89061C12.1406 10.2656 12.0469 10.6875 12.2813 11.0156C12.5156 11.3437 12.75 10.5 12.8438 10.3125C12.9844 9.98436 13.4531 9.42186 13.3594 10.125C13.3125 10.4062 13.2188 11.0625 13.5 11.25C13.6875 11.3906 13.9219 11.1562 14.0156 11.0156C14.2031 10.7812 14.1094 10.4062 14.0625 10.125C14.0156 9.89061 13.9219 9.60936 14.0625 9.37498C14.25 9.09373 14.3906 9.74998 14.3906 9.89061C14.3906 10.0312 14.5781 11.4844 14.9063 11.0156C15.2344 10.5937 14.3438 9.65623 14.9531 9.42186C15.1875 9.32811 15.6094 10.2656 15.1406 9.98436C15.2813 10.4062 15.4688 11.0156 15.1406 11.3906ZM16.9219 11.9531C16.9688 12.5625 17.4844 14.25 16.7813 14.625C16.6875 14.4375 16.7813 14.1562 16.8281 13.9219C16.875 13.5 16.7813 13.0781 16.7344 12.7031C16.6406 11.8125 16.5469 11.1562 15.9375 10.4531C15.7969 10.2656 15.5625 10.125 15.5156 9.84373C15.5156 9.74998 15.4688 9.32811 15.6563 9.42186C15.7969 9.46873 16.5938 10.1719 16.1719 10.1719C16.2188 10.2656 16.4063 10.6406 16.5 10.6406C16.5 10.4062 16.2188 9.70311 16.5 9.56248C16.7344 9.42186 17.0156 10.3125 16.9219 10.5C16.8281 10.7344 16.8281 10.875 16.9219 11.2031C17.0156 11.5781 17.25 11.9062 17.4375 12.2344C17.7188 12.7031 18.2813 13.3594 18.1406 13.9687C17.8594 13.8281 17.6719 13.1719 17.5313 12.8906C17.4375 12.6562 17.3438 12.4219 17.2031 12.2344C17.1563 12.1875 16.875 11.8125 16.9219 12.0469V11.9531ZM23.4375 12.8437C23.4844 13.8281 23.1563 15.0937 21.9375 15.0937C21.9375 14.8125 22.5469 14.5312 22.7344 14.3906C23.2031 14.0156 23.1563 13.3125 23.1094 12.7969C23.0625 12.0937 23.0156 11.3906 22.875 10.6875C22.8281 10.2656 22.5938 9.65623 22.9688 9.37498C23.2031 9.56248 23.5313 10.0781 23.3906 10.2656C23.1563 10.5469 23.3906 12.6562 23.4375 12.8437Z" fill="white"/>
<path d="M17.4375 14.953C18.6563 14.2499 18.2813 12.7499 18.1875 11.578C18.1406 11.2499 18.1406 10.9218 18.0937 10.5937C18.0937 10.3593 17.9063 10.0312 18 9.79678C18.2344 9.1874 18.4219 9.7499 18.4688 10.1249C18.5156 10.3593 18.3281 10.4062 18.375 10.5937C18.4219 10.9687 18.4219 11.3437 18.4688 11.7187C18.5156 12.328 18.6094 12.9374 18.5625 13.4999C18.4687 14.3905 18 15.3749 16.9219 15.1874C16.9687 15.0937 17.2969 15.0468 17.4375 14.953ZM19.4063 12.6093C19.4531 13.078 19.6406 13.9218 19.4063 14.3437C19.2188 14.6249 19.2188 14.1562 19.1719 14.1093C19.125 13.7343 19.125 13.3593 19.125 12.9374C19.0312 11.9062 18.7031 10.8749 18.7031 9.89053C18.7031 8.6249 19.7813 10.5937 19.1719 10.4999C19.2188 11.203 19.3125 11.9062 19.4063 12.6093ZM11.7656 10.2187C11.8594 10.453 10.6875 11.0624 10.5469 11.0624C10.5 10.828 11.0625 10.4999 11.2031 10.4062C11.3437 10.2655 11.4375 10.2655 11.3906 10.078C11.2969 9.89053 11.3438 9.5624 11.5781 9.46865C12.0469 9.32803 11.7188 10.0312 11.7656 10.2187ZM6.9375 14.3905C6.9375 14.7655 7.07812 14.578 7.26562 14.4843C7.35937 14.6718 7.125 15.1874 6.89062 14.953C6.5625 14.6249 6.84375 13.8749 6.98437 13.5468C7.07812 13.7812 6.89062 14.1562 6.9375 14.3905ZM20.1563 11.4843C20.2031 11.2968 20.0625 11.1093 20.2031 10.9218C20.3906 10.6874 20.5781 10.9687 20.4844 11.0624C20.3906 11.1562 20.25 10.9687 20.25 11.2499C20.25 11.3905 20.3437 11.6718 20.2031 11.8124C20.1094 11.7655 19.6875 11.1562 19.7344 11.0624C19.9219 10.8749 20.1094 11.4374 20.1563 11.4843ZM7.92187 12.2812C7.82812 12.4687 6.75 13.078 6.70312 12.9374C6.70312 12.7968 8.0625 11.9999 7.92187 12.2812ZM15.8906 14.6718C15.75 15.0937 16.3594 14.7187 16.5 14.6718C16.3125 14.9999 15.6562 15.2812 15.75 14.6718C15.7031 14.6718 15.6094 14.7187 15.5625 14.7187C15.4688 14.6249 16.0313 14.2499 15.8906 14.6718ZM21 14.5312C21.1406 14.5312 21.375 14.953 21.2344 15.0468C21.1406 15.1405 20.7188 15.1874 20.9531 14.9999C21.2344 14.7187 21 14.5312 21 14.5312ZM14.3906 12.1405C14.4375 12.0468 14.4375 11.9062 14.4844 11.8124C14.9531 12.1874 13.7344 12.7968 13.9687 11.9062C14.0625 11.9999 14.0625 12.1405 14.1563 12.1874C14.1563 12.0937 14.2031 11.953 14.2031 11.8593C14.2969 11.953 14.2969 12.0937 14.3906 12.1405ZM19.875 12.7499C19.7344 12.5624 20.5781 12.0468 20.7188 11.953C20.8125 12.0937 20.1563 12.6093 19.875 12.7499ZM22.5 10.8749C22.4063 10.5937 22.125 10.0312 22.4062 9.79678C22.5938 9.9374 22.6875 10.6405 22.5 10.8749ZM17.3906 9.9374C17.3437 9.84365 17.2031 9.7499 17.2031 9.60928C17.25 9.42178 17.3438 9.46865 17.4375 9.5624C17.5781 9.7499 17.6719 10.2655 17.4375 10.4062C17.4375 10.2655 17.4844 10.078 17.3906 9.9374ZM11.6719 11.203C11.6719 11.4843 11.2031 11.7655 11.1562 11.3905C11.1094 11.2499 11.3437 10.7343 11.4375 10.8749C11.25 11.2968 11.25 11.4374 11.6719 11.203Z" fill="white"/>
<path d="M17.5313 10.6874C17.7188 11.1561 17.625 10.7343 17.8125 10.6405C18.1406 11.2499 17.1094 11.1093 17.3438 10.7343C17.3906 10.7811 17.4375 10.8749 17.4375 10.9218C17.4844 10.8749 17.4844 10.7811 17.5313 10.6874ZM20.5313 12.8437C20.2969 12.6562 20.5781 12.4218 20.7188 12.6562C20.8125 12.7968 20.8125 13.1718 20.625 13.2655C20.625 13.1249 20.6719 12.9374 20.5313 12.8437ZM10.9219 13.8749C10.9219 13.7812 10.875 13.078 11.0156 13.1718C11.2031 13.2655 11.1563 13.7812 10.9219 13.8749ZM8.95314 9.46865C9.00001 9.60928 9.04689 9.79677 9.14064 9.5624C9.51564 9.98427 8.20314 9.84365 8.67189 9.42178C8.67189 9.46865 8.76564 9.7499 8.95314 9.46865ZM13.7344 10.4999C13.7344 10.3124 13.4531 9.51552 13.6875 9.51552C13.9688 9.5624 13.9219 10.2655 13.7344 10.4999ZM7.17189 10.078C7.03126 10.0312 7.26564 9.79678 7.17189 9.60928C7.07814 9.65615 6.98439 9.51553 7.07814 9.42178C7.45314 9.14053 7.31251 10.078 7.17189 10.078ZM19.3125 19.5936L19.125 19.0311L18.9375 19.5936H8.67189C8.67189 19.5936 8.76564 20.4374 9.79689 20.4374H18.8906V21.0937H21.375V19.5936H19.3125ZM20.9063 20.7187H19.2188V20.2499H20.9063V20.7187Z" fill="white"/>
</g>
<defs>
<clipPath id="clip0_105_22">
<rect width="30" height="30" fill="white"/>
</clipPath>
</defs>
</svg>
